<?xml version="1.0" encoding="UTF-8"?>
<svg xmlns="http://www.w3.org/2000/svg" xmlns:xlink="http://www.w3.org/1999/xlink" width="64pt" height="64pt" viewBox="0 0 64 64" version="1.1">
<g id="surface1">
<path style=" stroke:none;fill-rule:nonzero;fill:#F57C00;fill-opacity:1;" d="M 42.667969 6.597656 L 54.640625 18.570313 L 42.667969 30.546875 L 30.691406 18.570313 Z "/>
<path style=" stroke:none;fill-rule:nonzero;fill:#FF9800;fill-opacity:1;" d="M 30.667969 2.613281 L 43.960938 15.90625 L 30.667969 29.199219 L 17.375 15.90625 Z "/>
<path style=" stroke:none;fill-rule:nonzero;fill:#009688;fill-opacity:1;" d="M 24 42.667969 C 22.535156 42.667969 21.332031 41.464844 21.332031 40 L 21.332031 26.667969 L 16 26.667969 L 16 40 C 16 44.398438 19.601563 48 24 48 L 49.332031 48 L 49.332031 42.667969 Z "/>
<path style=" stroke:none;fill-rule:nonzero;fill:#009688;fill-opacity:1;" d="M 17.066406 13.332031 L 16.535156 11.601563 C 15.734375 9.464844 13.734375 8 11.464844 8 L 6.667969 8 L 6.667969 13.332031 L 11.464844 13.332031 L 18.800781 35.464844 C 19.199219 36.535156 20.132813 37.332031 21.332031 37.332031 L 46.667969 37.332031 C 47.734375 37.332031 48.667969 36.667969 49.066406 35.734375 L 59.199219 13.332031 Z "/>
<path style=" stroke:none;fill-rule:nonzero;fill:#00695C;fill-opacity:1;" d="M 9.332031 10.667969 C 9.332031 12.140625 8.140625 13.332031 6.667969 13.332031 C 5.195313 13.332031 4 12.140625 4 10.667969 C 4 9.195313 5.195313 8 6.667969 8 C 8.140625 8 9.332031 9.195313 9.332031 10.667969 Z "/>
<path style=" stroke:none;fill-rule:nonzero;fill:#37474F;fill-opacity:1;" d="M 49.332031 52 C 49.332031 54.210938 47.542969 56 45.332031 56 C 43.125 56 41.332031 54.210938 41.332031 52 C 41.332031 49.789063 43.125 48 45.332031 48 C 47.542969 48 49.332031 49.789063 49.332031 52 Z "/>
<path style=" stroke:none;fill-rule:nonzero;fill:#37474F;fill-opacity:1;" d="M 29.332031 52 C 29.332031 54.210938 27.542969 56 25.332031 56 C 23.125 56 21.332031 54.210938 21.332031 52 C 21.332031 49.789063 23.125 48 25.332031 48 C 27.542969 48 29.332031 49.789063 29.332031 52 Z "/>
<path style=" stroke:none;fill-rule:nonzero;fill:#607D8B;fill-opacity:1;" d="M 46.667969 52 C 46.667969 52.738281 46.070313 53.332031 45.332031 53.332031 C 44.597656 53.332031 44 52.738281 44 52 C 44 51.261719 44.597656 50.667969 45.332031 50.667969 C 46.070313 50.667969 46.667969 51.261719 46.667969 52 Z "/>
<path style=" stroke:none;fill-rule:nonzero;fill:#607D8B;fill-opacity:1;" d="M 26.667969 52 C 26.667969 52.738281 26.070313 53.332031 25.332031 53.332031 C 24.597656 53.332031 24 52.738281 24 52 C 24 51.261719 24.597656 50.667969 25.332031 50.667969 C 26.070313 50.667969 26.667969 51.261719 26.667969 52 Z "/>
</g>
</svg>
